<?xml version="1.0" encoding="utf-8"?>
<svg version="1.0" width="300.000000pt" height="300.000000pt" viewBox="0 0 300.000000 300.000000" preserveAspectRatio="xMidYMid meet" xmlns="http://www.w3.org/2000/svg">
  <g transform="translate(0.000000,300.000000) scale(0.050000,-0.050000)" fill="#f3f3f3" stroke="none">
    <path d="M 1530 4941 C 1030 4860 582 4528 353 4070 C 82 3527 216 2746 676 2188 L 781 2059 L 751 1971 C 598 1518 765 1052 1126 927 C 1260 880 3331 872 3560 917 C 3750 955 3853 1006 3901 1087 C 3923 1125 3968 1167 4001 1181 C 4065 1207 4140 1297 4140 1347 C 4140 1364 4160 1383 4185 1391 C 4245 1409 4314 1474 4329 1527 C 4336 1552 4411 1615 4508 1677 C 4713 1809 4936 2000 5070 2159 C 5126 2225 5226 2314 5291 2358 C 5746 2659 5864 3063 5611 3457 C 5582 3503 5556 3587 5543 3683 C 5479 4129 5164 4548 4722 4777 C 4003 5150 3284 4924 2948 4221 L 2886 4092 L 2823 4223 C 2571 4753 2072 5029 1530 4941 Z M 1901 4852 C 2315 4785 2659 4470 2817 4014 C 2859 3890 2920 3869 2941 3971 C 3023 4374 3462 4789 3868 4848 C 4204 4897 4771 4732 4920 4542 C 4926 4535 4961 4504 4998 4473 C 5194 4312 5395 3977 5448 3722 C 5489 3525 5496 3533 5220 3471 C 5203 3467 5154 3455 5110 3443 C 5066 3431 4999 3417 4960 3410 C 4922 3404 4827 3386 4750 3371 C 4574 3336 4171 3282 4000 3270 C 3929 3266 3814 3256 3745 3249 C 3630 3236 3614 3240 3551 3288 C 3366 3429 3003 3535 2679 3543 C 2458 3548 2407 3529 2389 3432 C 2366 3310 2421 3264 2745 3132 C 2886 3075 2827 3065 2336 3062 C 1808 3059 1779 3053 1738 2944 C 1722 2903 1725 2875 1748 2826 C 1777 2765 1776 2759 1742 2741 C 1642 2687 1663 2493 1774 2442 C 1815 2423 1820 2410 1810 2354 C 1796 2283 1888.333 2183.793 1942.249 2168.657 C 1974.249 2159.673 2002.685 2064.628 1973 2066 C 1914.474 2068.704 908.547 2082.078 863 2118 C 637.457 2295.878 454.166 2713.077 386.683 2911.634 C 358.288 2995.182 342.988 3094.727 334.421 3159.059 C 320.484 3263.723 309.687 3352.908 304 3459 C 268.468 4121.88 849.01 4738 1550 4850 C 1637.991 4864.059 1715 4865.679 1720 4867.679 C 1726 4868.679 1807 4867 1901 4852 Z M 3078 3402 C 3240 3359 3437 3268 3528 3194 L 3586 3147 L 3596 2654 C 3606 2137 3601 2100 3519 2100 C 3486 2100 3485 2105 3512 2159 C 3623 2380 3352 2439 2979 2276 C 2751 2177 2025 2175 1916 2273 C 1819 2362 1884 2401 2090 2377 C 2436 2338 2840 2357 2840 2412 C 2840 2434 2796 2440 2635 2441 C 1983 2444 1779 2483 1764 2606 C 1754 2691 1825 2724 1971 2699 C 2171 2665 2811 2650 2829 2679 C 2859 2726 2807 2736 2470 2749 C 1902 2770 1760 2808 1822 2923 C 1851 2978 1835 2976 2420 2986 C 2898 2994 2951 2998 2957 3028 C 2967 3080 2835 3192 2709 3239 C 2241 3414 2540 3545 3078 3402 Z M 5555 3368 C 5828 2892 5478 2423 4680 2194 C 4392 2112 3751 2079 3689 2144 C 3682 2152 3675 2638 3678 2924 L 3680 3157 L 3785 3168 C 3843 3174 3962 3184 4050 3190 C 4138 3196 4264 3210 4330 3220 C 4396 3230 4491 3244 4540 3250 C 4757 3276 5315 3395 5425 3439 C 5489 3465 5504 3457 5555 3368 Z M 3409 2280 C 3498 2246 3469 2197 3270 2044 C 3165 1964 3102.848 1887.144 3102.848 1877.144 C 3102.848 1849.144 3210 1834 3325 1847 C 3512 1868 4129 1882 4153 1866 C 4176 1850 4187 1813 4182 1765 C 4179 1727 4106 1705 3939 1691 C 3857 1684 3718 1670 3631 1659 C 3543 1649 3415 1640 3347 1640 C 3208 1640 3160 1627 3160 1590 C 3160 1547 3298 1540 3579 1570 C 3728 1586 3908 1604 3979 1611 C 4050 1618 4129 1632 4154 1641 C 4205 1661 4266 1598 4246 1547 C 4215 1466 3906 1400 3390 1364 C 3278.429 1356.031 3205.715 1341.075 3177.633 1326.026 C 3148.84 1310.597 3161.254 1280.791 3232.525 1272.597 C 3257.469 1269.73 3294.634 1282.041 3332.864 1281.288 C 3472.864 1279.288 3604 1297 3975 1353 C 4050 1364 4059 1361 4048 1332 C 4014 1245 3803 1189 3351 1149 C 3213 1137 3158 1106 3209 1068 C 3231 1053 3266 1050 3316 1061 C 3357 1069 3449 1082 3520 1088 C 3592 1095 3690 1106 3738 1113 C 3803 1122 3822 1119 3811 1101 C 3765 1027 3495 982 3008 967 L 2586 955 L 2576 1222 C 2570 1370 2570 1606 2576 1747 L 2586 2003 L 2758 2087 C 2963 2188 3098 2242 3220 2272 C 3340 2303 3349 2303 3409 2280 Z M 4944 2151 C 4873 2060 4359 1660 4314 1660 C 4280 1660 4243 1728 4259 1760 C 4290 1821 4244 1916 4172 1939 C 4109 1960 3409.306 1956.649 3373.306 1934.649 C 3369.748 1932.616 3343.735 1932.939 3321.77 1931.912 C 3300.52 1930.918 3283.453 1928.463 3271.16 1932.888 L 3301.026 1960.036 L 3345.57 1994.982 C 3369.57 2007.982 3402.798 2018.588 3455.798 2025.588 C 3508.798 2032.588 3574 2037 3602 2052 C 3631 2067 3660 2074 3665 2068 C 3760 1974 4684 2056 4893 2178 C 4961 2217 4986 2204 4944 2151 Z M 2530 2119 C 2622 2119 2627 2116 2591 2089 C 2555 2062 2060 2043 2060 2068 C 2060 2073 2054 2092 2047 2112 C 2034 2144 2048 2145 2232 2133 C 2341 2126 2475 2120 2530 2119 Z M 967.09 1999.93 C 998.09 1988.93 1289 1980 1728 1980 L 2474 1978 L 2487 1796 C 2503 1567 2503 1336 2487 1128 L 2474 965 L 1852 974 C 1070 986 984 1015 842 1320 C 764 1487 791.51 1992.465 875.51 1992.465 C 879.51 1992.465 939.09 2010.93 967.09 1999.93 Z"/>
  </g>
</svg>